<svg xmlns="http://www.w3.org/2000/svg" width="256" height="256" viewBox="0 0 256 256" version="1.1"><path d="M 84.500 52.492 C 78.929 54.448, 74.346 60.016, 73.010 66.451 C 72.280 69.967, 72.019 91.296, 72.212 131.589 L 72.500 191.500 75.152 196.011 C 76.731 198.696, 79.431 201.436, 81.825 202.781 C 85.690 204.954, 86.645 205.031, 106.570 204.771 L 127.294 204.500 124.612 201.314 L 121.930 198.128 104.482 197.814 L 87.033 197.500 83.767 194.232 L 80.500 190.963 80.220 146.982 L 79.940 103 133.470 103 L 187 103 187 146.865 C 187 189.665, 186.950 190.794, 184.937 193.353 C 183.754 194.857, 180.899 196.552, 178.248 197.325 C 175.169 198.223, 172.776 199.772, 171.090 201.957 L 168.558 205.241 176.122 204.859 C 182.582 204.533, 184.235 204.058, 187.452 201.605 C 195.073 195.791, 194.953 196.767, 194.978 140.366 L 195 90.233 185.250 89.810 C 174.846 89.359, 170.930 88.025, 165.658 83.136 C 160.239 78.109, 158.638 73.524, 158.189 61.750 L 157.779 51 123.139 51.044 C 96.052 51.078, 87.628 51.394, 84.500 52.492 M 164.029 60.790 C 163.990 73.328, 166.397 78.174, 174.775 82.418 C 177.224 83.659, 180.155 84.004, 186.399 83.789 L 194.747 83.500 179.403 67.500 L 164.058 51.500 164.029 60.790 M 87 76.884 L 87 88 89.500 88 C 91.750 88, 92 87.600, 92 84 L 92 80 96.345 80 C 101.483 80, 104 77.806, 104 73.326 C 104 68.698, 100.986 66.658, 93.443 66.177 L 87 65.767 87 76.884 M 107 76.863 L 107 88 112.435 88 C 120.016 88, 122.811 86.696, 124.646 82.304 C 126.616 77.590, 125.821 72.367, 122.653 69.198 C 120.751 67.297, 118.849 66.677, 113.622 66.258 L 107 65.726 107 76.863 M 129 76.956 L 129 88 131.500 88 C 133.796 88, 134 87.633, 134 83.500 L 134 79 138.573 79 C 142.389 79, 143.092 78.710, 142.815 77.250 C 142.573 75.973, 141.335 75.417, 138.241 75.193 C 134.814 74.944, 134 74.512, 134 72.943 C 134 71.275, 134.717 71, 139.070 71 C 143.755 71, 144.115 70.829, 143.820 68.750 C 143.526 66.685, 142.903 66.476, 136.250 66.206 L 129 65.912 129 76.956 M 92 73.563 C 92 75.853, 92.347 76.093, 95.250 75.813 C 97.741 75.573, 98.575 74.975, 98.820 73.250 C 99.100 71.277, 98.699 71, 95.570 71 C 92.405 71, 92 71.291, 92 73.563 M 112 77.500 C 112 83.767, 112.090 84, 114.500 84 C 117.621 84, 121 80.737, 121 77.723 C 121 74.045, 118.256 71, 114.943 71 L 112 71 112 77.500 M 136 176 L 136 192 130 192 C 126.700 192, 124 192.246, 124 192.546 C 124 193.240, 146.953 219.411, 147.864 219.757 C 148.553 220.018, 172 193.604, 172 192.567 C 172 192.255, 169.300 192, 166 192 L 160 192 160 176 L 160 160 148 160 L 136 160 136 176" stroke="none" fill="#fbf9f9" fill-rule="evenodd"/><path d="M 104.597 1.607 C 88.506 4.512, 70.520 11.902, 55.718 21.688 C 46.433 27.827, 27.827 46.433, 21.688 55.718 C 6.761 78.295, 0 100.828, 0 128 C 0 155.172, 6.761 177.705, 21.688 200.282 C 27.827 209.567, 46.433 228.173, 55.718 234.312 C 78.295 249.239, 100.828 256, 128 256 C 155.172 256, 177.705 249.239, 200.282 234.312 C 209.567 228.173, 228.173 209.567, 234.312 200.282 C 244.006 185.620, 251.619 167.171, 254.029 152.500 C 254.662 148.650, 255.589 144.719, 256.090 143.764 C 257.155 141.732, 257.343 110.323, 256.284 111.383 C 255.890 111.776, 254.983 108.633, 254.267 104.396 C 251.649 88.898, 244.143 70.588, 234.312 55.718 C 228.173 46.433, 209.567 27.827, 200.282 21.688 C 185.078 11.636, 167.432 4.481, 150.615 1.548 C 139.525 -0.386, 115.461 -0.355, 104.597 1.607 M 84.500 52.492 C 78.929 54.448, 74.346 60.016, 73.010 66.451 C 72.280 69.967, 72.019 91.296, 72.212 131.589 L 72.500 191.500 75.152 196.011 C 76.731 198.696, 79.431 201.436, 81.825 202.781 C 85.690 204.954, 86.645 205.031, 106.570 204.771 L 127.294 204.500 124.612 201.314 L 121.930 198.128 104.482 197.814 L 87.033 197.500 83.767 194.232 L 80.500 190.963 80.220 146.982 L 79.940 103 133.470 103 L 187 103 187 146.865 C 187 189.665, 186.950 190.794, 184.937 193.353 C 183.754 194.857, 180.899 196.552, 178.248 197.325 C 175.169 198.223, 172.776 199.772, 171.090 201.957 L 168.558 205.241 176.122 204.859 C 182.582 204.533, 184.235 204.058, 187.452 201.605 C 195.073 195.791, 194.953 196.767, 194.978 140.366 L 195 90.233 185.250 89.810 C 174.846 89.359, 170.930 88.025, 165.658 83.136 C 160.239 78.109, 158.638 73.524, 158.189 61.750 L 157.779 51 123.139 51.044 C 96.052 51.078, 87.628 51.394, 84.500 52.492 M 164.029 60.790 C 163.990 73.328, 166.397 78.174, 174.775 82.418 C 177.224 83.659, 180.155 84.004, 186.399 83.789 L 194.747 83.500 179.403 67.500 L 164.058 51.500 164.029 60.790 M 87 76.884 L 87 88 89.500 88 C 91.750 88, 92 87.600, 92 84 L 92 80 96.345 80 C 101.483 80, 104 77.806, 104 73.326 C 104 68.698, 100.986 66.658, 93.443 66.177 L 87 65.767 87 76.884 M 107 76.863 L 107 88 112.435 88 C 120.016 88, 122.811 86.696, 124.646 82.304 C 126.616 77.590, 125.821 72.367, 122.653 69.198 C 120.751 67.297, 118.849 66.677, 113.622 66.258 L 107 65.726 107 76.863 M 129 76.956 L 129 88 131.500 88 C 133.796 88, 134 87.633, 134 83.500 L 134 79 138.573 79 C 142.389 79, 143.092 78.710, 142.815 77.250 C 142.573 75.973, 141.335 75.417, 138.241 75.193 C 134.814 74.944, 134 74.512, 134 72.943 C 134 71.275, 134.717 71, 139.070 71 C 143.755 71, 144.115 70.829, 143.820 68.750 C 143.526 66.685, 142.903 66.476, 136.250 66.206 L 129 65.912 129 76.956 M 92 73.563 C 92 75.853, 92.347 76.093, 95.250 75.813 C 97.741 75.573, 98.575 74.975, 98.820 73.250 C 99.100 71.277, 98.699 71, 95.570 71 C 92.405 71, 92 71.291, 92 73.563 M 112 77.500 C 112 83.767, 112.090 84, 114.500 84 C 117.621 84, 121 80.737, 121 77.723 C 121 74.045, 118.256 71, 114.943 71 L 112 71 112 77.500 M 0.407 128 C 0.407 137.075, 0.559 140.787, 0.744 136.250 C 0.929 131.713, 0.929 124.287, 0.744 119.750 C 0.559 115.213, 0.407 118.925, 0.407 128 M 136 176 L 136 192 130 192 C 126.700 192, 124 192.246, 124 192.546 C 124 193.240, 146.953 219.411, 147.864 219.757 C 148.553 220.018, 172 193.604, 172 192.567 C 172 192.255, 169.300 192, 166 192 L 160 192 160 176 L 160 160 148 160 L 136 160 136 176" stroke="none" fill="#cf3d3e" fill-rule="evenodd"/></svg>